<svg width="194" height="194" viewBox="0 0 194 194" fill="none" xmlns="http://www.w3.org/2000/svg">
<g filter="url(#filter0_d_39_2700)">
<path d="M84.1051 123.191C80.9711 121.437 79.8452 117.485 81.5908 114.366L91.4731 96.7089C94.3676 91.5372 94.204 86.9567 89.4869 84.3166C84.9295 81.7659 80.0128 84.5533 77.5213 89.0048L67.6835 106.582C65.9379 109.701 61.9802 110.809 58.8464 109.055L58.6867 108.965C55.5528 107.211 54.4269 103.259 56.1725 100.14L73.2256 69.6703C74.8954 66.687 78.6849 65.627 81.6824 67.3046L81.7763 67.3572C84.4075 68.8298 85.6085 71.9643 84.6292 74.806C89.5103 71.8944 94.6461 73.4117 98.0054 75.2918C102.323 77.7085 106.066 81.8911 105.421 89.0524C111.919 85.6886 116.834 85.7254 122.669 88.9914C130.901 93.5984 136.098 101.941 127.906 116.578L117.801 134.632C116.056 137.751 112.098 138.858 108.964 137.105L108.725 136.97C105.591 135.216 104.465 131.264 106.21 128.145L116.182 110.329C118.943 105.396 119.409 101.376 114.772 98.7811C110.214 96.2304 106.016 99.0023 103.525 103.454L93.6423 121.111C91.8967 124.23 87.9436 125.34 84.8097 123.586L84.1051 123.191Z" fill="#FF6B00"/>
<path d="M112.61 79.2377L109.291 81.4637L111.025 67.297C111.025 67.297 108.633 76.5206 107.491 80.8552L105.447 77.8262C100.823 70.9518 102.63 61.659 109.483 57.0443C111.843 55.461 115.049 56.0944 116.646 58.4559C121.287 65.3334 119.479 74.6382 112.61 79.2377Z" fill="#4BEE5C"/>
<path d="M116.683 82.8543L114.472 81.1813L124.148 79.1724C124.148 79.1724 117.56 79.6547 114.459 79.8716L115.981 77.8683C119.435 73.3167 125.94 72.4316 130.517 75.896C132.092 77.0842 132.404 79.3162 131.219 80.882C127.772 85.4314 121.262 86.3138 116.683 82.8543Z" fill="#4BEE5C"/>
</g>
<path d="M109.03 173.526L114.611 187.158L111.259 187.401L106.393 175.321L108.069 175.2L104.816 187.868L101.824 188.085L96.9381 176.007L98.5538 175.89L95.3811 188.552L92.2892 188.776L95.8449 174.482L99.3158 174.23L103.633 184.826L102.716 184.892L105.559 173.778L109.03 173.526Z" fill="white"/>
<path d="M79.292 180.89L72.7279 179.36L73.2998 176.906L79.8639 178.436L79.292 180.89ZM80.3655 175.226L72.9443 173.497L73.5343 170.964L84.0915 173.424L80.9143 187.059L70.6103 184.658L71.2004 182.126L78.3684 183.796L80.3655 175.226Z" fill="white"/>
<path d="M66.3237 168.408L59.8584 180.825L53.7914 177.667C52.2303 176.854 51.2135 175.949 50.7408 174.951C50.2563 173.947 50.2665 172.96 50.7714 171.99C51.1101 171.34 51.5653 170.855 52.137 170.537C52.7026 170.23 53.3311 170.091 54.0224 170.12C54.7137 170.15 55.4201 170.352 56.1415 170.728L55.4257 171.279C54.6452 170.873 54.0211 170.383 53.5534 169.809C53.0796 169.246 52.8064 168.63 52.7338 167.961C52.6495 167.286 52.7951 166.588 53.1707 165.866C53.7249 164.802 54.5788 164.187 55.7325 164.021C56.8801 163.867 58.2699 164.214 59.9019 165.064L66.3237 168.408ZM62.3408 169.085L58.988 167.339C58.2429 166.951 57.6196 166.777 57.118 166.817C56.5984 166.862 56.2001 167.15 55.923 167.683C55.6521 168.203 55.6471 168.689 55.9081 169.14C56.151 169.598 56.6451 170.02 57.3901 170.408L60.9558 172.265L59.8659 174.358L56.797 172.76C56.0992 172.397 55.5055 172.238 55.0157 172.284C54.5079 172.335 54.1248 172.609 53.8662 173.106C53.6137 173.591 53.6151 174.05 53.8704 174.483C54.1077 174.923 54.5753 175.324 55.273 175.687L58.1291 177.174L62.3408 169.085Z" fill="white"/>
<path d="M40.6926 150.955L29.8308 159.787L25.8181 154.853C24.8591 153.674 24.2413 152.449 23.9646 151.179C23.6775 149.917 23.7313 148.705 24.126 147.542C24.5207 146.379 25.2714 145.347 26.3783 144.447C27.4748 143.555 28.6378 143.031 29.8672 142.873C31.0863 142.724 32.2894 142.914 33.4764 143.444C34.6531 143.982 35.7209 144.841 36.6799 146.02L40.6926 150.955ZM36.5847 150.119L34.7171 147.823C34.1283 147.098 33.4849 146.582 32.7869 146.273C32.0701 145.962 31.3405 145.868 30.5981 145.991C29.8473 146.103 29.1305 146.437 28.4477 146.992C27.7546 147.555 27.2818 148.189 27.0292 148.893C26.7579 149.595 26.7065 150.324 26.8749 151.081C27.0247 151.835 27.394 152.575 27.9828 153.299L29.8504 155.595L36.5847 150.119Z" fill="white"/>
<path d="M19.2769 134.342L16.4956 128.203L18.791 127.163L21.5724 133.303L19.2769 134.342ZM24.4246 131.747L21.2801 124.806L23.6484 123.733L28.1217 133.607L15.3693 139.384L11.0033 129.747L13.3716 128.674L16.4088 135.378L24.4246 131.747Z" fill="white"/>
<path d="M20.7371 111.835C20.9521 112.934 21.0141 114.016 20.9233 115.08C20.8193 116.146 20.592 117.033 20.2412 117.74L17.6354 117.129C17.939 116.458 18.1501 115.697 18.2688 114.845C18.3719 113.982 18.3428 113.139 18.1816 112.314C18.0588 111.686 17.9014 111.194 17.7094 110.838C17.5018 110.471 17.2688 110.217 17.0105 110.078C16.7523 109.938 16.4792 109.896 16.1913 109.952C15.8249 110.024 15.5652 110.224 15.4121 110.553C15.2459 110.885 15.1435 111.299 15.1048 111.795C15.0529 112.294 15.0245 112.843 15.0193 113.442C14.9985 114.03 14.9527 114.63 14.8821 115.242C14.809 115.841 14.6745 116.403 14.4788 116.931C14.283 117.458 13.979 117.918 13.5668 118.312C13.152 118.692 12.5782 118.953 11.8454 119.096C11.0603 119.25 10.3062 119.18 9.58312 118.887C8.84441 118.583 8.20214 118.043 7.65633 117.266C7.09488 116.48 6.68749 115.438 6.43415 114.143C6.26527 113.279 6.20362 112.408 6.24922 111.53C6.28173 110.654 6.43811 109.856 6.71838 109.135L9.32457 109.645C9.08356 110.357 8.9407 111.051 8.89597 111.725C8.83816 112.403 8.86939 113.049 8.98966 113.664C9.10993 114.279 9.28042 114.768 9.50113 115.133C9.72183 115.497 9.96659 115.741 10.2354 115.865C10.4911 115.992 10.7695 116.026 11.0704 115.967C11.4237 115.898 11.6835 115.698 11.8496 115.366C12.0027 115.037 12.0986 114.625 12.1373 114.128C12.1761 113.631 12.2058 113.089 12.2267 112.501C12.2449 111.899 12.2841 111.301 12.3442 110.705C12.4017 110.096 12.5283 109.528 12.7241 109C12.9198 108.473 13.2251 108.019 13.6399 107.639C14.0521 107.246 14.6181 106.979 15.3378 106.838C16.1098 106.687 16.8587 106.765 17.5843 107.072C18.3099 107.378 18.9535 107.925 19.5149 108.711C20.0738 109.485 20.4812 110.526 20.7371 111.835Z" fill="white"/>
<path d="M19.0254 98.9927L5.02557 99.0599L5.01002 95.82L19.0099 95.7528L19.0254 98.9927Z" fill="white"/>
<path d="M20.9155 80.8519C20.6931 81.936 20.3183 82.9003 19.7911 83.745C19.2536 84.5738 18.5951 85.2622 17.8158 85.8101C17.0391 86.3449 16.1809 86.7133 15.2412 86.9152C14.3041 87.1041 13.3196 87.0927 12.2878 86.881C11.256 86.6693 10.3465 86.2922 9.55951 85.7496C8.77518 85.194 8.13268 84.5109 7.63202 83.7004C7.13135 82.8899 6.80501 81.9927 6.65299 81.0087C6.48791 80.0221 6.51792 78.9802 6.74301 77.883C6.99221 76.6683 7.41841 75.6193 8.02161 74.7358C8.62748 73.8393 9.38405 73.137 10.2913 72.629L11.7541 75.0524C11.1299 75.4415 10.6333 75.9045 10.2646 76.4414C9.88279 76.9755 9.62087 77.5887 9.47885 78.281C9.34219 78.9471 9.32208 79.5759 9.41851 80.1674C9.51495 80.7588 9.71755 81.2972 10.0263 81.7825C10.3378 82.2547 10.7385 82.6568 11.2284 82.9887C11.7211 83.3075 12.2939 83.5339 12.947 83.6679C13.587 83.7992 14.1962 83.8153 14.7746 83.7162C15.3556 83.604 15.8888 83.3935 16.3741 83.0848C16.849 82.7603 17.2459 82.3517 17.5647 81.859C17.8863 81.3533 18.114 80.774 18.248 80.1209C18.3766 79.494 18.4033 78.8665 18.3279 78.2386C18.2422 77.5949 18.0153 76.9426 17.6473 76.2818L20.3093 74.9497C20.7182 75.8094 20.9711 76.7664 21.0678 77.8207C21.1673 78.8619 21.1165 79.8723 20.9155 80.8519ZM19.303 77.7649L14.1503 76.7077L14.7452 73.8081L20.3093 74.9497L19.303 77.7649Z" fill="white"/>
<path d="M24.3823 67.6382L11.9148 61.2694L13.1339 58.8828L25.8681 56.1125L25.2767 57.2702L16.3001 52.6846L17.7558 49.8349L30.2233 56.2037L29.0133 58.5725L16.27 61.3607L16.8614 60.203L25.838 64.7885L24.3823 67.6382Z" fill="white"/>
<path d="M41.9208 35.6876L39.9958 34.0924L43.6072 29.7343L45.5322 31.3295L41.9208 35.6876Z" fill="white"/>
<path d="M54.7029 31.1818L44.2057 20.8481L47.1905 19.3052L56.42 28.4931L54.9276 29.2646L52.9292 16.3389L55.5943 14.9614L64.8415 24.1401L63.4024 24.884L61.333 11.9951L64.0868 10.5716L66.4468 25.1115L63.3553 26.7094L55.2147 18.6697L56.032 18.2473L57.7943 29.5839L54.7029 31.1818Z" fill="white"/>
<path d="M79.1394 12.7033L85.7755 11.5247L86.2162 14.0059L79.58 15.1845L79.1394 12.7033ZM80.3829 18.3326L87.8855 17.0002L88.3401 19.5601L77.6671 21.4556L75.2191 7.67127L85.6361 5.82125L86.0907 8.3812L78.8441 9.66817L80.3829 18.3326Z" fill="white"/>
<path d="M95.9748 19.071L97.0284 5.11075L103.849 5.6255C105.604 5.75795 106.895 6.18967 107.723 6.92068C108.563 7.65268 108.942 8.5638 108.86 9.65403C108.805 10.3853 108.577 11.0099 108.177 11.5279C107.778 12.0327 107.255 12.4077 106.608 12.6531C105.961 12.8984 105.232 12.9905 104.421 12.9293L104.862 12.1402C105.739 12.2064 106.506 12.4114 107.162 12.755C107.819 13.0854 108.312 13.5439 108.643 14.1304C108.986 14.7179 109.127 15.4171 109.066 16.2282C108.976 17.4248 108.433 18.3265 107.438 18.9333C106.444 19.5268 105.029 19.7544 103.194 19.6159L95.9748 19.071ZM99.3693 16.8803L103.139 17.1648C103.976 17.228 104.618 17.1427 105.063 16.9089C105.523 16.6628 105.776 16.2406 105.821 15.6423C105.865 15.0573 105.678 14.6086 105.26 14.2963C104.857 13.9717 104.237 13.7778 103.399 13.7146L99.3904 13.412L99.568 11.0587L103.018 11.3191C103.803 11.3783 104.411 11.2905 104.843 11.0557C105.29 10.8086 105.534 10.4059 105.576 9.84745C105.617 9.30233 105.435 8.88077 105.03 8.58275C104.639 8.27243 104.051 8.08768 103.267 8.02848L100.056 7.78615L99.3693 16.8803Z" fill="white"/>
<path d="M126.408 25.0224L132.914 12.6262L138.545 15.582C139.891 16.2884 140.942 17.1709 141.696 18.2295C142.457 19.2762 142.885 20.4119 142.98 21.6363C143.075 22.8608 142.791 24.1047 142.128 25.3679C141.471 26.6194 140.609 27.5596 139.541 28.1886C138.479 28.8059 137.298 29.1046 135.998 29.085C134.705 29.0535 133.385 28.6846 132.039 27.9782L126.408 25.0224ZM130.513 24.1729L133.134 25.5485C133.96 25.9823 134.755 26.2037 135.518 26.2128C136.299 26.2163 137.007 26.0155 137.641 25.6105C138.287 25.2117 138.815 24.6228 139.224 23.8436C139.639 23.0526 139.824 22.2839 139.779 21.5375C139.752 20.7855 139.512 20.0949 139.059 19.4657C138.625 18.8309 137.994 18.2967 137.168 17.8629L134.547 16.4872L130.513 24.1729Z" fill="white"/>
<path d="M152.634 31.8603L157.608 36.4085L155.908 38.2683L150.934 33.72L152.634 31.8603ZM148.924 36.273L154.548 41.4151L152.793 43.3339L144.794 36.0188L154.241 25.6871L162.049 32.8266L160.294 34.7454L154.863 29.7787L148.924 36.273Z" fill="white"/>
<path d="M160.124 52.6277L168.457 39.8591L170.391 42.7766L162.971 54.0278L161.833 52.3107L175.13 49.9286L176.909 52.6127L161.892 55.2952L160.124 52.6277Z" fill="white"/>
<path d="M176.567 65.9026L178.818 72.2557L176.443 73.0972L174.192 66.744L176.567 65.9026ZM171.218 68.0521L173.762 75.2348L171.312 76.103L167.692 65.8851L180.889 61.2104L184.421 71.1831L181.971 72.0513L179.513 65.1137L171.218 68.0521Z" fill="white"/>
<path d="M172.945 83.606L186.863 82.0943L187.213 85.3153L175.919 86.542L176.677 93.5209L174.053 93.806L172.945 83.606Z" fill="white"/>
<path d="M172.899 107.737C173.057 106.642 173.381 105.652 173.872 104.766C174.362 103.893 174.979 103.16 175.724 102.567C176.468 101.987 177.303 101.568 178.229 101.311C179.153 101.067 180.13 101.019 181.159 101.167C182.189 101.315 183.112 101.636 183.93 102.131C184.746 102.639 185.428 103.283 185.976 104.062C186.524 104.842 186.91 105.719 187.133 106.694C187.356 107.669 187.39 108.698 187.235 109.78C187.077 110.875 186.754 111.853 186.267 112.712C185.778 113.585 185.161 114.311 184.418 114.891C183.673 115.484 182.837 115.909 181.911 116.167C180.998 116.426 180.02 116.481 178.977 116.331C177.948 116.183 177.019 115.854 176.19 115.344C175.374 114.836 174.692 114.192 174.144 113.413C173.607 112.648 173.227 111.779 173.004 110.804C172.778 109.842 172.744 108.82 172.899 107.737ZM175.634 108.111C175.545 108.731 175.569 109.314 175.706 109.859C175.841 110.417 176.078 110.923 176.417 111.376C176.756 111.828 177.181 112.199 177.692 112.488C178.2 112.791 178.785 112.989 179.445 113.084C180.104 113.179 180.721 113.153 181.294 113.007C181.866 112.873 182.378 112.637 182.831 112.298C183.282 111.973 183.651 111.561 183.938 111.063C184.225 110.566 184.413 110.007 184.503 109.387C184.592 108.767 184.569 108.177 184.434 107.619C184.297 107.074 184.059 106.575 183.72 106.122C183.381 105.669 182.957 105.292 182.448 104.989C181.937 104.7 181.352 104.508 180.692 104.413C180.045 104.32 179.43 104.34 178.845 104.471C178.272 104.617 177.76 104.854 177.309 105.179C176.856 105.518 176.486 105.937 176.199 106.434C175.911 106.932 175.723 107.49 175.634 108.111Z" fill="white"/>
<path d="M169.917 122.045L182.776 127.581L180.38 133.147C179.884 134.298 179.267 135.208 178.529 135.878C177.803 136.552 176.993 136.966 176.1 137.118C175.207 137.271 174.277 137.139 173.309 136.722C172.354 136.311 171.625 135.729 171.122 134.975C170.619 134.221 170.357 133.346 170.336 132.35C170.327 131.359 170.57 130.288 171.066 129.137L172.751 125.224L173.522 127.124L168.636 125.02L169.917 122.045ZM173.192 126.982L175.175 126.268L173.562 130.016C173.167 130.934 173.067 131.704 173.264 132.326C173.461 132.948 173.908 133.409 174.606 133.71C175.317 134.016 175.965 134.026 176.552 133.742C177.139 133.457 177.63 132.856 178.026 131.937L179.639 128.19L180.484 130.122L173.192 126.982Z" fill="white"/>
<path d="M166.142 146.93L162.056 152.29L160.052 150.762L164.138 145.402L166.142 146.93ZM161.416 143.628L156.796 149.688L154.729 148.112L161.301 139.491L172.434 147.979L166.02 156.393L163.952 154.817L168.414 148.963L161.416 143.628Z" fill="white"/>
<path d="M149.597 153.753L157.994 164.955L155.849 166.563L145.154 162.232L146.291 161.38L147.528 172.8L145.399 174.396L136.97 163.218L139.403 161.394L145.021 168.856L144.573 169.192L143.603 160.095L144.771 159.22L153.31 162.642L152.766 163.05L147.164 155.576L149.597 153.753Z" fill="white"/>
<path d="M129.465 176.031L123.174 178.45L122.27 176.097L128.561 173.679L129.465 176.031ZM127.174 170.741L120.061 173.475L119.128 171.048L129.246 167.158L134.27 180.226L124.395 184.023L123.462 181.596L130.332 178.955L127.174 170.741Z" fill="white"/>
<path d="M111.744 173.019L113.276 186.935L110.613 187.229L101.299 178.113L102.591 177.971L103.694 187.99L100.514 188.341L98.9813 174.425L101.625 174.134L110.959 183.247L109.667 183.389L108.563 173.37L111.744 173.019Z" fill="white"/>
<path d="M87.4718 173.734L85.8706 184.98L90.3059 185.612L89.9338 188.225L77.8556 186.506L78.2277 183.892L82.663 184.524L84.2642 173.277L87.4718 173.734Z" fill="white"/>
<defs>
<filter id="filter0_d_39_2700" x="43.3505" y="48.1724" width="100.681" height="105.765" filterUnits="userSpaceOnUse" color-interpolation-filters="sRGB">
<feFlood flood-opacity="0" result="BackgroundImageFix"/>
<feColorMatrix in="SourceAlpha" type="matrix" values="0 0 0 0 0 0 0 0 0 0 0 0 0 0 0 0 0 0 127 0" result="hardAlpha"/>
<feOffset dy="4"/>
<feGaussianBlur stdDeviation="6"/>
<feColorMatrix type="matrix" values="0 0 0 0 0.0760417 0 0 0 0 0.0845 0 0 0 0 0.090625 0 0 0 0.1 0"/>
<feBlend mode="normal" in2="BackgroundImageFix" result="effect1_dropShadow_39_2700"/>
<feBlend mode="normal" in="SourceGraphic" in2="effect1_dropShadow_39_2700" result="shape"/>
</filter>
</defs>
</svg>
