<svg width="41" height="41" viewBox="0 0 41 41" fill="none" xmlns="http://www.w3.org/2000/svg">
<rect x="4" y="4" width="33" height="33" rx="16.5" fill="url(#paint0_linear_32_261)"/>
<path fill-rule="evenodd" clip-rule="evenodd" d="M13.6584 20.3679C17.3024 18.7803 19.7323 17.7337 20.9481 17.228C24.4195 15.7841 25.1408 15.5333 25.611 15.525C25.7144 15.5232 25.9456 15.5488 26.0954 15.6703C26.2218 15.7729 26.2566 15.9115 26.2733 16.0088C26.2899 16.1061 26.3106 16.3277 26.2942 16.5009C26.106 18.4775 25.2921 23.274 24.878 25.4878C24.7027 26.4245 24.3577 26.7386 24.0237 26.7693C23.2978 26.8361 22.7466 26.2896 22.0435 25.8287C20.9434 25.1076 20.3218 24.6586 19.2539 23.9549C18.0198 23.1416 18.8198 22.6946 19.5232 21.9641C19.7072 21.7729 22.9056 18.8638 22.9675 18.5999C22.9752 18.5669 22.9824 18.4439 22.9093 18.3789C22.8362 18.3139 22.7283 18.3362 22.6505 18.3538C22.5402 18.3789 20.7826 19.5405 17.3779 21.8388C16.8791 22.1814 16.4272 22.3483 16.0224 22.3395C15.576 22.3299 14.7175 22.0872 14.0793 21.8797C13.2965 21.6252 12.6743 21.4907 12.7285 21.0586C12.7567 20.8335 13.0667 20.6033 13.6584 20.3679Z" fill="white"/>
<rect x="4" y="4" width="33" height="33" rx="16.5" stroke="white" stroke-width="8"/>
<defs>
<linearGradient id="paint0_linear_32_261" x1="20.5" y1="8" x2="20.5" y2="32.8146" gradientUnits="userSpaceOnUse">
<stop stop-color="#2AABEE"/>
<stop offset="1" stop-color="#229ED9"/>
</linearGradient>
</defs>
</svg>
