<svg width="41" height="41" viewBox="0 0 41 41" fill="none" xmlns="http://www.w3.org/2000/svg">
<rect x="4" y="4" width="33" height="33" rx="16.5" fill="url(#paint0_linear_32_264)"/>
<path d="M12.9177 27.7723L13.9895 23.8802C13.3269 22.7378 12.9793 21.4441 12.9829 20.1215C12.9829 15.9772 16.3721 12.6077 20.5326 12.6077C22.5531 12.6077 24.4505 13.3897 25.8735 14.8096C27.3002 16.2294 28.0859 18.1178 28.0823 20.1251C28.0823 24.2694 24.6931 27.6389 20.529 27.6389H20.5253C19.2616 27.6389 18.0196 27.3218 16.9152 26.7236L12.9177 27.7723ZM17.1072 25.365L17.3353 25.5019C18.2984 26.0713 19.4028 26.3704 20.529 26.374H20.5326C23.9906 26.374 26.8077 23.5739 26.8077 20.1287C26.8077 18.4602 26.1559 16.8925 24.9719 15.7105C23.7878 14.5285 22.2091 13.8798 20.5326 13.8798C17.0746 13.8762 14.2575 16.6763 14.2575 20.1215C14.2575 21.2999 14.587 22.4495 15.217 23.4442L15.3655 23.682L14.7318 25.9848L17.1072 25.365Z" fill="white"/>
<path d="M13.182 27.5093L14.2176 23.7506C13.5767 22.6515 13.24 21.4009 13.24 20.1252C13.2436 16.125 16.5133 12.8708 20.5326 12.8708C22.4843 12.8708 24.3129 13.6276 25.6889 14.9971C27.0648 16.3665 27.8216 18.19 27.8216 20.1288C27.8216 24.129 24.5482 27.3832 20.5326 27.3832H20.529C19.3087 27.3832 18.1102 27.0769 17.0456 26.5003L13.182 27.5093Z" fill="url(#paint1_linear_32_264)"/>
<path d="M12.9177 27.7723L13.9895 23.8802C13.3269 22.7378 12.9793 21.4441 12.9829 20.1215C12.9829 15.9772 16.3721 12.6077 20.5326 12.6077C22.5531 12.6077 24.4505 13.3897 25.8735 14.8096C27.3002 16.2294 28.0859 18.1178 28.0823 20.1251C28.0823 24.2694 24.6931 27.6389 20.529 27.6389H20.5253C19.2616 27.6389 18.0196 27.3218 16.9152 26.7236L12.9177 27.7723ZM17.1072 25.365L17.3353 25.5019C18.2984 26.0713 19.4028 26.3704 20.529 26.374H20.5326C23.9906 26.374 26.8077 23.5739 26.8077 20.1287C26.8077 18.4602 26.1559 16.8925 24.9719 15.7105C23.7878 14.5285 22.2091 13.8798 20.5326 13.8798C17.0746 13.8762 14.2575 16.6763 14.2575 20.1215C14.2575 21.2999 14.587 22.4495 15.217 23.4442L15.3655 23.682L14.7318 25.9848L17.1072 25.365Z" fill="url(#paint2_linear_32_264)"/>
<path fill-rule="evenodd" clip-rule="evenodd" d="M18.646 16.9791C18.5048 16.6655 18.3563 16.6583 18.2224 16.6547C18.1137 16.6511 17.987 16.6511 17.8603 16.6511C17.7335 16.6511 17.5308 16.698 17.357 16.8854C17.1831 17.0728 16.6979 17.5268 16.6979 18.453C16.6979 19.3756 17.3751 20.2693 17.4692 20.3954C17.5633 20.5216 18.7764 22.4784 20.6919 23.2316C22.2851 23.8586 22.611 23.7325 22.955 23.7001C23.299 23.6676 24.0702 23.246 24.2295 22.8063C24.3852 22.3667 24.3852 21.9919 24.3382 21.9126C24.2911 21.8333 24.1644 21.7865 23.9761 21.6928C23.7878 21.5991 22.8608 21.145 22.687 21.0801C22.5132 21.0189 22.3865 20.9864 22.2634 21.1738C22.1366 21.3612 21.7745 21.7829 21.6659 21.909C21.5573 22.0351 21.445 22.0496 21.2567 21.9559C21.0684 21.8622 20.4601 21.664 19.7395 21.0225C19.1783 20.5252 18.7981 19.9089 18.6895 19.7215C18.5808 19.5341 18.6786 19.4332 18.7728 19.3395C18.856 19.2566 18.961 19.1197 19.0552 19.0116C19.1493 18.9035 19.1819 18.8242 19.2435 18.6981C19.305 18.5719 19.2761 18.4638 19.229 18.3701C19.1819 18.28 18.8126 17.3503 18.646 16.9791Z" fill="white"/>
<rect x="4" y="4" width="33" height="33" rx="16.5" stroke="white" stroke-width="8"/>
<defs>
<linearGradient id="paint0_linear_32_264" x1="20.4994" y1="32.9988" x2="20.4994" y2="7.99913" gradientUnits="userSpaceOnUse">
<stop stop-color="#20B038"/>
<stop offset="1" stop-color="#60D66A"/>
</linearGradient>
<linearGradient id="paint1_linear_32_264" x1="20.5014" y1="27.5086" x2="20.5014" y2="12.8703" gradientUnits="userSpaceOnUse">
<stop stop-color="#20B038"/>
<stop offset="1" stop-color="#60D66A"/>
</linearGradient>
<linearGradient id="paint2_linear_32_264" x1="20.5015" y1="27.7709" x2="20.5015" y2="12.6077" gradientUnits="userSpaceOnUse">
<stop stop-color="#F9F9F9"/>
<stop offset="1" stop-color="white"/>
</linearGradient>
</defs>
</svg>
